/* XPM */
static char* icon[] = {
"20 10 3 1",
"   c None",
"A  c None",
"B  c #ed333b",
"AAAAAABBAAAABBAAAAAA",
"AAAAABBBBAABBBBAAAAA",
"AAAABBBBBBBBBBBBAAAA",
"AAAABBBBBBBBBBBBAAAA",
"AAAAABBBBBBBBBBAAAAA",
"AAAAABBBBBBBBBBAAAAA",
"AAAAAABBBBBBBBAAAAAA",
"AAAAAAABBBBBBAAAAAAA",
"AAAAAAAABBBBAAAAAAAA",
"AAAAAAAAABBAAAAAAAAA"
};